<svg xmlns="http://www.w3.org/2000/svg" viewBox="0 0 1440 823" width="1440" height="823">
    <!-- A sketch of a page of text in the starter theme: a heading, paragraphs and a picture. -->
    <rect width="1440" height="823" fill="#fffbf5"/>
    <rect x="0" y="0" width="1440" height="36" fill="#b45309"/>
    <rect x="590" y="13" width="260" height="10" rx="3" fill="#fffbf5"/>
    <rect x="160" y="65" width="140" height="20" rx="4" fill="#1c1917"/>
    <rect x="960" y="69" width="60" height="12" rx="3" fill="#78716c"/>
    <rect x="1040" y="69" width="60" height="12" rx="3" fill="#78716c"/>
    <rect x="1120" y="69" width="60" height="12" rx="3" fill="#78716c"/>
    <rect x="1200" y="69" width="80" height="12" rx="3" fill="#78716c"/>
    <rect x="0" y="114" width="1440" height="1" fill="#e7e5e4"/>
    <rect x="160" y="200" width="480" height="40" rx="3" fill="#1c1917"/>
    <rect x="160" y="276" width="740" height="12" rx="3" fill="#292524"/>
    <rect x="160" y="300" width="700" height="12" rx="3" fill="#292524"/>
    <rect x="160" y="324" width="730" height="12" rx="3" fill="#292524"/>
    <rect x="160" y="348" width="540" height="12" rx="3" fill="#292524"/>
    <rect x="160" y="400" width="740" height="480" rx="8" fill="#fef3e2" stroke="#e7e5e4"/>
    <rect x="960" y="200" width="320" height="220" rx="8" fill="#fef3e2" stroke="#e7e5e4"/>
</svg>
